# 3ds Max Wavefront OBJ Exporter v0.97b - (c)2007 guruware
# 创建的文件:18.04.2017 14:44:53

#
# object PeiYangMin
#

v  5.0000 0.0000 -0.0000
v  4.9240 0.0000 -0.8682
v  4.9240 2.0000 -0.8682
v  5.0000 2.0000 -0.0000
v  4.6985 0.0000 -1.7101
v  4.6985 2.0000 -1.7101
v  4.3301 0.0000 -2.5000
v  4.3301 2.0000 -2.5000
v  3.8302 0.0000 -3.2139
v  3.8302 2.0000 -3.2139
v  3.2139 0.0000 -3.8302
v  3.2139 2.0000 -3.8302
v  2.5000 0.0000 -4.3301
v  2.5000 2.0000 -4.3301
v  1.7101 0.0000 -4.6985
v  1.7101 2.0000 -4.6985
v  0.8682 0.0000 -4.9240
v  0.8682 2.0000 -4.9240
v  0.0000 0.0000 -5.0000
v  0.0000 2.0000 -5.0000
v  -0.8682 0.0000 -4.9240
v  -0.8682 2.0000 -4.9240
v  -1.7101 0.0000 -4.6985
v  -1.7101 2.0000 -4.6985
v  -2.5000 0.0000 -4.3301
v  -2.5000 2.0000 -4.3301
v  -3.2139 0.0000 -3.8302
v  -3.2139 2.0000 -3.8302
v  -3.8302 0.0000 -3.2139
v  -3.8302 2.0000 -3.2139
v  -4.3301 0.0000 -2.5000
v  -4.3301 2.0000 -2.5000
v  -4.6985 0.0000 -1.7101
v  -4.6985 2.0000 -1.7101
v  -4.9240 0.0000 -0.8682
v  -4.9240 2.0000 -0.8682
v  -5.0000 0.0000 -0.0000
v  -5.0000 2.0000 -0.0000
v  -4.9240 0.0000 0.8682
v  -4.9240 2.0000 0.8682
v  -4.6985 0.0000 1.7101
v  -4.6985 2.0000 1.7101
v  -4.3301 0.0000 2.5000
v  -4.3301 2.0000 2.5000
v  -3.8302 0.0000 3.2139
v  -3.8302 2.0000 3.2139
v  -3.2139 0.0000 3.8302
v  -3.2139 2.0000 3.8302
v  -2.5000 0.0000 4.3301
v  -2.5000 2.0000 4.3301
v  -1.7101 0.0000 4.6985
v  -1.7101 2.0000 4.6985
v  -0.8682 0.0000 4.9240
v  -0.8682 2.0000 4.9240
v  -0.0000 0.0000 5.0000
v  -0.0000 2.0000 5.0000
v  0.8682 0.0000 4.9240
v  0.8682 2.0000 4.9240
v  1.7101 0.0000 4.6985
v  1.7101 2.0000 4.6985
v  2.5000 0.0000 4.3301
v  2.5000 2.0000 4.3301
v  3.2139 0.0000 3.8302
v  3.2139 2.0000 3.8302
v  3.8302 0.0000 3.2139
v  3.8302 2.0000 3.2139
v  4.3301 0.0000 2.5000
v  4.3301 2.0000 2.5000
v  4.6985 0.0000 1.7101
v  4.6985 2.0000 1.7101
v  4.9240 0.0000 0.8682
v  4.9240 2.0000 0.8682
v  4.7758 2.0000 -0.8421
v  4.8494 2.0000 -0.0000
v  4.5570 2.0000 -1.6586
v  4.1997 2.0000 -2.4247
v  3.7149 2.0000 -3.1172
v  3.1172 2.0000 -3.7149
v  2.4247 2.0000 -4.1997
v  1.6586 2.0000 -4.5570
v  0.8421 2.0000 -4.7758
v  0.0000 2.0000 -4.8494
v  -0.8421 2.0000 -4.7758
v  -1.6586 2.0000 -4.5570
v  -2.4247 2.0000 -4.1997
v  -3.1172 2.0000 -3.7149
v  -3.7149 2.0000 -3.1172
v  -4.1997 2.0000 -2.4247
v  -4.5570 2.0000 -1.6586
v  -4.7758 2.0000 -0.8421
v  -4.8494 2.0000 -0.0000
v  -4.7758 2.0000 0.8421
v  -4.5570 2.0000 1.6586
v  -4.1997 2.0000 2.4247
v  -3.7149 2.0000 3.1171
v  -3.1172 2.0000 3.7149
v  -2.4247 2.0000 4.1997
v  -1.6586 2.0000 4.5570
v  -0.8421 2.0000 4.7758
v  -0.0000 2.0000 4.8494
v  0.8421 2.0000 4.7758
v  1.6586 2.0000 4.5570
v  2.4247 2.0000 4.1997
v  3.1171 2.0000 3.7149
v  3.7149 2.0000 3.1172
v  4.1997 2.0000 2.4247
v  4.5570 2.0000 1.6586
v  4.7758 2.0000 0.8421
v  4.7758 0.2000 -0.8421
v  4.8494 0.2000 -0.0000
v  4.5570 0.2000 -1.6586
v  4.1997 0.2000 -2.4247
v  3.7149 0.2000 -3.1172
v  3.1172 0.2000 -3.7149
v  2.4247 0.2000 -4.1997
v  1.6586 0.2000 -4.5570
v  0.8421 0.2000 -4.7758
v  0.0000 0.2000 -4.8494
v  -0.8421 0.2000 -4.7758
v  -1.6586 0.2000 -4.5570
v  -2.4247 0.2000 -4.1997
v  -3.1172 0.2000 -3.7149
v  -3.7149 0.2000 -3.1172
v  -4.1997 0.2000 -2.4247
v  -4.5570 0.2000 -1.6586
v  -4.7758 0.2000 -0.8421
v  -4.8494 0.2000 -0.0000
v  -4.7758 0.2000 0.8421
v  -4.5570 0.2000 1.6586
v  -4.1997 0.2000 2.4247
v  -3.7149 0.2000 3.1171
v  -3.1172 0.2000 3.7149
v  -2.4247 0.2000 4.1997
v  -1.6586 0.2000 4.5570
v  -0.8421 0.2000 4.7758
v  -0.0000 0.2000 4.8494
v  0.8421 0.2000 4.7758
v  1.6586 0.2000 4.5570
v  2.4247 0.2000 4.1997
v  3.1171 0.2000 3.7149
v  3.7149 0.2000 3.1172
v  4.1997 0.2000 2.4247
v  4.5570 0.2000 1.6586
v  4.7758 0.2000 0.8421
v  -0.0000 0.0000 -0.0000
v  -0.0000 0.2000 -0.0000
# 146 vertices

vn 1.0000 0.0000 0.0000
vn 0.9848 0.0000 -0.1736
vn 0.9397 0.0000 -0.3420
vn 0.8660 0.0000 -0.5000
vn 0.7660 0.0000 -0.6428
vn 0.6428 0.0000 -0.7660
vn 0.5000 0.0000 -0.8660
vn 0.3420 0.0000 -0.9397
vn 0.1736 0.0000 -0.9848
vn 0.0000 0.0000 -1.0000
vn -0.0000 0.0000 -1.0000
vn -0.1736 0.0000 -0.9848
vn -0.3420 0.0000 -0.9397
vn -0.5000 0.0000 -0.8660
vn -0.6428 0.0000 -0.7660
vn -0.7660 0.0000 -0.6428
vn -0.8660 0.0000 -0.5000
vn -0.9397 0.0000 -0.3420
vn -0.9848 0.0000 -0.1736
vn -1.0000 0.0000 -0.0000
vn -0.9848 0.0000 0.1736
vn -0.9397 0.0000 0.3420
vn -0.8660 0.0000 0.5000
vn -0.7660 0.0000 0.6428
vn -0.6428 0.0000 0.7660
vn -0.5000 0.0000 0.8660
vn -0.3420 0.0000 0.9397
vn -0.1736 0.0000 0.9848
vn -0.0000 0.0000 1.0000
vn 0.1736 0.0000 0.9848
vn 0.3420 0.0000 0.9397
vn 0.5000 0.0000 0.8660
vn 0.6428 0.0000 0.7660
vn 0.7660 0.0000 0.6428
vn 0.8660 0.0000 0.5000
vn 0.9397 0.0000 0.3420
vn 0.9848 0.0000 0.1736
vn 0.0000 1.0000 -0.0000
vn 0.0000 0.0000 1.0000
vn 0.0000 -1.0000 -0.0000
vn -0.0000 1.0000 -0.0000
vn -0.0000 1.0000 0.0000
vn 0.0000 1.0000 0.0000
# 43 vertex normals

vt 0.1625 0.9212 0.0000
vt 0.1264 0.9212 0.0000
vt 0.1264 0.8379 0.0000
vt 0.1625 0.8379 0.0000
vt 0.0913 0.9212 0.0000
vt 0.0913 0.8379 0.0000
vt 0.0584 0.9212 0.0000
vt 0.0584 0.8379 0.0000
vt 0.0287 0.9212 0.0000
vt 0.0287 0.8379 0.0000
vt 0.0030 0.9212 0.0000
vt 0.0030 0.8379 0.0000
vt 0.7138 0.6803 0.0000
vt 0.6841 0.6803 0.0000
vt 0.6841 0.5970 0.0000
vt 0.7138 0.5970 0.0000
vt 0.6512 0.6803 0.0000
vt 0.6512 0.5970 0.0000
vt 0.6161 0.6803 0.0000
vt 0.6161 0.5970 0.0000
vt 0.5800 0.6803 0.0000
vt 0.5800 0.5970 0.0000
vt 0.5438 0.6803 0.0000
vt 0.5438 0.5970 0.0000
vt 0.5087 0.6803 0.0000
vt 0.5087 0.5970 0.0000
vt 0.4758 0.6803 0.0000
vt 0.4758 0.5970 0.0000
vt 0.4461 0.6803 0.0000
vt 0.4461 0.5970 0.0000
vt 0.4204 0.6803 0.0000
vt 0.4204 0.5970 0.0000
vt 0.7138 0.4987 0.0000
vt 0.6841 0.4987 0.0000
vt 0.6841 0.4154 0.0000
vt 0.7138 0.4154 0.0000
vt 0.6512 0.4987 0.0000
vt 0.6512 0.4154 0.0000
vt 0.6161 0.4987 0.0000
vt 0.6161 0.4154 0.0000
vt 0.5800 0.4987 0.0000
vt 0.5800 0.4154 0.0000
vt 0.5438 0.4987 0.0000
vt 0.5438 0.4154 0.0000
vt 0.5087 0.4987 0.0000
vt 0.5087 0.4154 0.0000
vt 0.4758 0.4987 0.0000
vt 0.4758 0.4154 0.0000
vt 0.4461 0.4987 0.0000
vt 0.4461 0.4154 0.0000
vt 0.4204 0.4987 0.0000
vt 0.4204 0.4154 0.0000
vt 0.7138 0.5895 0.0000
vt 0.6841 0.5895 0.0000
vt 0.6841 0.5062 0.0000
vt 0.7138 0.5062 0.0000
vt 0.6512 0.5895 0.0000
vt 0.6512 0.5062 0.0000
vt 0.6161 0.5895 0.0000
vt 0.6161 0.5062 0.0000
vt 0.5800 0.5895 0.0000
vt 0.5800 0.5062 0.0000
vt 0.5438 0.5895 0.0000
vt 0.5438 0.5062 0.0000
vt 0.5087 0.5895 0.0000
vt 0.5087 0.5062 0.0000
vt 0.4758 0.5895 0.0000
vt 0.4758 0.5062 0.0000
vt 0.4461 0.5895 0.0000
vt 0.4461 0.5062 0.0000
vt 0.4204 0.5895 0.0000
vt 0.4204 0.5062 0.0000
vt 0.2964 0.9212 0.0000
vt 0.2666 0.9212 0.0000
vt 0.2666 0.8379 0.0000
vt 0.2964 0.8379 0.0000
vt 0.2337 0.9212 0.0000
vt 0.2337 0.8379 0.0000
vt 0.1987 0.9212 0.0000
vt 0.1987 0.8379 0.0000
vt 0.3808 0.5082 0.0000
vt 0.3991 0.5396 0.0000
vt 0.3934 0.5422 0.0000
vt 0.3757 0.5118 0.0000
vt 0.4115 0.5737 0.0000
vt 0.4055 0.5753 0.0000
vt 0.4179 0.6094 0.0000
vt 0.4116 0.6100 0.0000
vt 0.4180 0.6457 0.0000
vt 0.4117 0.6452 0.0000
vt 0.4117 0.6815 0.0000
vt 0.4057 0.6799 0.0000
vt 0.3994 0.7156 0.0000
vt 0.3937 0.7130 0.0000
vt 0.3813 0.7471 0.0000
vt 0.3761 0.7435 0.0000
vt 0.3580 0.7749 0.0000
vt 0.3535 0.7705 0.0000
vt 0.3302 0.7983 0.0000
vt 0.3266 0.7932 0.0000
vt 0.2988 0.8165 0.0000
vt 0.2962 0.8108 0.0000
vt 0.2647 0.8290 0.0000
vt 0.2631 0.8229 0.0000
vt 0.2290 0.8353 0.0000
vt 0.2284 0.8291 0.0000
vt 0.1927 0.8354 0.0000
vt 0.1932 0.8292 0.0000
vt 0.1569 0.8292 0.0000
vt 0.1586 0.8231 0.0000
vt 0.1228 0.8168 0.0000
vt 0.1254 0.8111 0.0000
vt 0.0913 0.7987 0.0000
vt 0.0949 0.7936 0.0000
vt 0.0635 0.7754 0.0000
vt 0.0679 0.7710 0.0000
vt 0.0401 0.7477 0.0000
vt 0.0452 0.7441 0.0000
vt 0.0219 0.7163 0.0000
vt 0.0276 0.7136 0.0000
vt 0.0094 0.6822 0.0000
vt 0.0155 0.6805 0.0000
vt 0.0031 0.6464 0.0000
vt 0.0093 0.6459 0.0000
vt 0.0030 0.6101 0.0000
vt 0.0092 0.6107 0.0000
vt 0.0092 0.5744 0.0000
vt 0.0153 0.5760 0.0000
vt 0.0216 0.5403 0.0000
vt 0.0273 0.5429 0.0000
vt 0.0397 0.5088 0.0000
vt 0.0448 0.5124 0.0000
vt 0.0630 0.4809 0.0000
vt 0.0674 0.4854 0.0000
vt 0.0907 0.4576 0.0000
vt 0.0943 0.4627 0.0000
vt 0.1221 0.4394 0.0000
vt 0.1248 0.4450 0.0000
vt 0.1562 0.4269 0.0000
vt 0.1579 0.4329 0.0000
vt 0.1920 0.4205 0.0000
vt 0.1925 0.4268 0.0000
vt 0.2283 0.4204 0.0000
vt 0.2277 0.4267 0.0000
vt 0.2640 0.4267 0.0000
vt 0.2624 0.4327 0.0000
vt 0.2982 0.4390 0.0000
vt 0.2955 0.4447 0.0000
vt 0.3296 0.4571 0.0000
vt 0.3260 0.4623 0.0000
vt 0.3575 0.4804 0.0000
vt 0.3530 0.4849 0.0000
vt 0.5503 0.6877 0.0000
vt 0.5853 0.6877 0.0000
vt 0.5853 0.7627 0.0000
vt 0.5503 0.7627 0.0000
vt 0.6193 0.6877 0.0000
vt 0.6193 0.7627 0.0000
vt 0.6513 0.6877 0.0000
vt 0.6513 0.7627 0.0000
vt 0.6801 0.6877 0.0000
vt 0.6801 0.7627 0.0000
vt 0.7050 0.6877 0.0000
vt 0.7050 0.7627 0.0000
vt 0.4204 0.8526 0.0000
vt 0.4493 0.8526 0.0000
vt 0.4493 0.9276 0.0000
vt 0.4204 0.9276 0.0000
vt 0.4812 0.8526 0.0000
vt 0.4812 0.9276 0.0000
vt 0.5152 0.8526 0.0000
vt 0.5152 0.9276 0.0000
vt 0.5503 0.8526 0.0000
vt 0.5503 0.9276 0.0000
vt 0.5853 0.8526 0.0000
vt 0.5853 0.9276 0.0000
vt 0.6193 0.8526 0.0000
vt 0.6193 0.9276 0.0000
vt 0.6513 0.8526 0.0000
vt 0.6513 0.9276 0.0000
vt 0.6801 0.8526 0.0000
vt 0.6801 0.9276 0.0000
vt 0.7050 0.8526 0.0000
vt 0.7050 0.9276 0.0000
vt 0.4204 0.7702 0.0000
vt 0.4493 0.7702 0.0000
vt 0.4493 0.8451 0.0000
vt 0.4204 0.8451 0.0000
vt 0.4812 0.7702 0.0000
vt 0.4812 0.8451 0.0000
vt 0.5152 0.7702 0.0000
vt 0.5152 0.8451 0.0000
vt 0.5503 0.7702 0.0000
vt 0.5503 0.8451 0.0000
vt 0.5853 0.7702 0.0000
vt 0.5853 0.8451 0.0000
vt 0.6193 0.7702 0.0000
vt 0.6193 0.8451 0.0000
vt 0.6513 0.7702 0.0000
vt 0.6513 0.8451 0.0000
vt 0.6801 0.7702 0.0000
vt 0.6801 0.8451 0.0000
vt 0.7050 0.7702 0.0000
vt 0.7050 0.8451 0.0000
vt 0.7125 0.6877 0.0000
vt 0.7413 0.6877 0.0000
vt 0.7413 0.7627 0.0000
vt 0.7125 0.7627 0.0000
vt 0.7732 0.6877 0.0000
vt 0.7732 0.7627 0.0000
vt 0.8072 0.6877 0.0000
vt 0.8072 0.7627 0.0000
vt 0.8423 0.6877 0.0000
vt 0.8423 0.7627 0.0000
vt 0.8774 0.6877 0.0000
vt 0.8774 0.7627 0.0000
vt 0.9114 0.6877 0.0000
vt 0.9114 0.7627 0.0000
vt 0.9433 0.6877 0.0000
vt 0.9433 0.7627 0.0000
vt 0.9721 0.6877 0.0000
vt 0.9721 0.7627 0.0000
vt 0.9970 0.6877 0.0000
vt 0.9970 0.7627 0.0000
vt 0.4204 0.6877 0.0000
vt 0.4493 0.6877 0.0000
vt 0.4493 0.7627 0.0000
vt 0.4204 0.7627 0.0000
vt 0.4812 0.6877 0.0000
vt 0.4812 0.7627 0.0000
vt 0.5152 0.6877 0.0000
vt 0.5152 0.7627 0.0000
vt 0.3991 0.1221 0.0000
vt 0.4115 0.1562 0.0000
vt 0.2105 0.2105 0.0000
vt 0.4179 0.1920 0.0000
vt 0.4180 0.2283 0.0000
vt 0.4117 0.2640 0.0000
vt 0.3994 0.2982 0.0000
vt 0.3813 0.3296 0.0000
vt 0.3580 0.3575 0.0000
vt 0.3302 0.3808 0.0000
vt 0.2988 0.3991 0.0000
vt 0.2647 0.4115 0.0000
vt 0.2290 0.4179 0.0000
vt 0.1927 0.4180 0.0000
vt 0.1569 0.4117 0.0000
vt 0.1228 0.3994 0.0000
vt 0.0913 0.3813 0.0000
vt 0.0635 0.3580 0.0000
vt 0.0401 0.3302 0.0000
vt 0.0219 0.2988 0.0000
vt 0.0094 0.2647 0.0000
vt 0.0031 0.2290 0.0000
vt 0.0030 0.1927 0.0000
vt 0.0092 0.1569 0.0000
vt 0.0216 0.1228 0.0000
vt 0.0397 0.0913 0.0000
vt 0.0630 0.0635 0.0000
vt 0.0907 0.0401 0.0000
vt 0.1221 0.0219 0.0000
vt 0.1562 0.0094 0.0000
vt 0.1920 0.0031 0.0000
vt 0.2283 0.0030 0.0000
vt 0.2640 0.0092 0.0000
vt 0.2982 0.0216 0.0000
vt 0.3296 0.0397 0.0000
vt 0.3575 0.0630 0.0000
vt 0.3808 0.0907 0.0000
vt 0.5055 0.0390 0.0000
vt 0.5360 0.0213 0.0000
vt 0.6217 0.2042 0.0000
vt 0.5691 0.0092 0.0000
vt 0.6037 0.0031 0.0000
vt 0.6389 0.0030 0.0000
vt 0.6736 0.0091 0.0000
vt 0.7067 0.0210 0.0000
vt 0.7372 0.0386 0.0000
vt 0.7642 0.0612 0.0000
vt 0.7869 0.0881 0.0000
vt 0.8046 0.1186 0.0000
vt 0.8167 0.1516 0.0000
vt 0.8228 0.1863 0.0000
vt 0.8229 0.2215 0.0000
vt 0.8169 0.2562 0.0000
vt 0.8049 0.2893 0.0000
vt 0.7873 0.3198 0.0000
vt 0.7647 0.3468 0.0000
vt 0.7378 0.3695 0.0000
vt 0.7074 0.3871 0.0000
vt 0.6743 0.3992 0.0000
vt 0.6396 0.4054 0.0000
vt 0.6044 0.4055 0.0000
vt 0.5698 0.3994 0.0000
vt 0.5366 0.3874 0.0000
vt 0.5061 0.3699 0.0000
vt 0.4791 0.3473 0.0000
vt 0.4564 0.3204 0.0000
vt 0.4388 0.2899 0.0000
vt 0.4267 0.2568 0.0000
vt 0.4205 0.2222 0.0000
vt 0.4204 0.1870 0.0000
vt 0.4265 0.1523 0.0000
vt 0.4385 0.1192 0.0000
vt 0.4560 0.0887 0.0000
vt 0.4786 0.0617 0.0000
# 306 texture coords

g PeiYangMin
f 1/1/1 2/2/2 3/3/2 4/4/1 
f 2/2/2 5/5/3 6/6/3 3/3/2 
f 5/5/3 7/7/4 8/8/4 6/6/3 
f 7/7/4 9/9/5 10/10/5 8/8/4 
f 9/9/5 11/11/6 12/12/6 10/10/5 
f 11/13/6 13/14/7 14/15/7 12/16/6 
f 13/14/7 15/17/8 16/18/8 14/15/7 
f 15/17/8 17/19/9 18/20/9 16/18/8 
f 17/19/9 19/21/10 20/22/11 18/20/9 
f 19/21/10 21/23/12 22/24/12 20/22/11 
f 21/23/12 23/25/13 24/26/13 22/24/12 
f 23/25/13 25/27/14 26/28/14 24/26/13 
f 25/27/14 27/29/15 28/30/15 26/28/14 
f 27/29/15 29/31/16 30/32/16 28/30/15 
f 29/33/16 31/34/17 32/35/17 30/36/16 
f 31/34/17 33/37/18 34/38/18 32/35/17 
f 33/37/18 35/39/19 36/40/19 34/38/18 
f 35/39/19 37/41/20 38/42/20 36/40/19 
f 37/41/20 39/43/21 40/44/21 38/42/20 
f 39/43/21 41/45/22 42/46/22 40/44/21 
f 41/45/22 43/47/23 44/48/23 42/46/22 
f 43/47/23 45/49/24 46/50/24 44/48/23 
f 45/49/24 47/51/25 48/52/25 46/50/24 
f 47/53/25 49/54/26 50/55/26 48/56/25 
f 49/54/26 51/57/27 52/58/27 50/55/26 
f 51/57/27 53/59/28 54/60/28 52/58/27 
f 53/59/28 55/61/29 56/62/29 54/60/28 
f 55/61/29 57/63/30 58/64/30 56/62/29 
f 57/63/30 59/65/31 60/66/31 58/64/30 
f 59/65/31 61/67/32 62/68/32 60/66/31 
f 61/67/32 63/69/33 64/70/33 62/68/32 
f 63/69/33 65/71/34 66/72/34 64/70/33 
f 65/73/34 67/74/35 68/75/35 66/76/34 
f 67/74/35 69/77/36 70/78/36 68/75/35 
f 69/77/36 71/79/37 72/80/37 70/78/36 
f 71/79/37 1/1/1 4/4/1 72/80/37 
f 4/81/38 3/82/38 73/83/38 74/84/38 
f 3/82/38 6/85/38 75/86/38 73/83/38 
f 6/85/38 8/87/38 76/88/38 75/86/38 
f 8/87/38 10/89/38 77/90/38 76/88/38 
f 10/89/38 12/91/38 78/92/38 77/90/38 
f 12/91/38 14/93/38 79/94/38 78/92/38 
f 14/93/38 16/95/38 80/96/38 79/94/38 
f 16/95/38 18/97/38 81/98/38 80/96/38 
f 18/97/38 20/99/38 82/100/38 81/98/38 
f 20/99/38 22/101/38 83/102/38 82/100/38 
f 22/101/38 24/103/38 84/104/38 83/102/38 
f 24/103/38 26/105/38 85/106/38 84/104/38 
f 26/105/38 28/107/38 86/108/38 85/106/38 
f 28/107/38 30/109/38 87/110/38 86/108/38 
f 30/109/38 32/111/38 88/112/38 87/110/38 
f 32/111/38 34/113/38 89/114/38 88/112/38 
f 34/113/38 36/115/38 90/116/38 89/114/38 
f 36/115/38 38/117/38 91/118/38 90/116/38 
f 38/117/38 40/119/38 92/120/38 91/118/38 
f 40/119/38 42/121/38 93/122/38 92/120/38 
f 42/121/38 44/123/38 94/124/38 93/122/38 
f 44/123/38 46/125/38 95/126/38 94/124/38 
f 46/125/38 48/127/38 96/128/38 95/126/38 
f 48/127/38 50/129/38 97/130/38 96/128/38 
f 50/129/38 52/131/38 98/132/38 97/130/38 
f 52/131/38 54/133/38 99/134/38 98/132/38 
f 54/133/38 56/135/38 100/136/38 99/134/38 
f 56/135/38 58/137/38 101/138/38 100/136/38 
f 58/137/38 60/139/38 102/140/38 101/138/38 
f 60/139/38 62/141/38 103/142/38 102/140/38 
f 62/141/38 64/143/38 104/144/38 103/142/38 
f 64/143/38 66/145/38 105/146/38 104/144/38 
f 66/145/38 68/147/38 106/148/38 105/146/38 
f 68/147/38 70/149/38 107/150/38 106/148/38 
f 70/149/38 72/151/38 108/152/38 107/150/38 
f 72/151/38 4/81/38 74/84/38 108/152/38 
f 74/153/20 73/154/21 109/155/21 110/156/20 
f 73/154/21 75/157/22 111/158/22 109/155/21 
f 75/157/22 76/159/23 112/160/23 111/158/22 
f 76/159/23 77/161/24 113/162/24 112/160/23 
f 77/161/24 78/163/25 114/164/25 113/162/24 
f 78/165/25 79/166/26 115/167/26 114/168/25 
f 79/166/26 80/169/27 116/170/27 115/167/26 
f 80/169/27 81/171/28 117/172/28 116/170/27 
f 81/171/28 82/173/29 118/174/39 117/172/28 
f 82/173/29 83/175/30 119/176/30 118/174/39 
f 83/175/30 84/177/31 120/178/31 119/176/30 
f 84/177/31 85/179/32 121/180/32 120/178/31 
f 85/179/32 86/181/33 122/182/33 121/180/32 
f 86/181/33 87/183/34 123/184/34 122/182/33 
f 87/185/34 88/186/35 124/187/35 123/188/34 
f 88/186/35 89/189/36 125/190/36 124/187/35 
f 89/189/36 90/191/37 126/192/37 125/190/36 
f 90/191/37 91/193/1 127/194/1 126/192/37 
f 91/193/1 92/195/2 128/196/2 127/194/1 
f 92/195/2 93/197/3 129/198/3 128/196/2 
f 93/197/3 94/199/4 130/200/4 129/198/3 
f 94/199/4 95/201/5 131/202/5 130/200/4 
f 95/201/5 96/203/6 132/204/6 131/202/5 
f 96/205/6 97/206/7 133/207/7 132/208/6 
f 97/206/7 98/209/8 134/210/8 133/207/7 
f 98/209/8 99/211/9 135/212/9 134/210/8 
f 99/211/9 100/213/10 136/214/10 135/212/9 
f 100/213/10 101/215/12 137/216/12 136/214/10 
f 101/215/12 102/217/13 138/218/13 137/216/12 
f 102/217/13 103/219/14 139/220/14 138/218/13 
f 103/219/14 104/221/15 140/222/15 139/220/14 
f 104/221/15 105/223/16 141/224/16 140/222/15 
f 105/225/16 106/226/17 142/227/17 141/228/16 
f 106/226/17 107/229/18 143/230/18 142/227/17 
f 107/229/18 108/231/19 144/232/19 143/230/18 
f 108/231/19 74/153/20 110/156/20 144/232/19 
f 71/233/40 69/234/40 145/235/40 
f 69/234/40 67/236/40 145/235/40 
f 67/236/40 65/237/40 145/235/40 
f 65/237/40 63/238/40 145/235/40 
f 63/238/40 61/239/40 145/235/40 
f 61/239/40 59/240/40 145/235/40 
f 59/240/40 57/241/40 145/235/40 
f 57/241/40 55/242/40 145/235/40 
f 55/242/40 53/243/40 145/235/40 
f 53/243/40 51/244/40 145/235/40 
f 51/244/40 49/245/40 145/235/40 
f 49/245/40 47/246/40 145/235/40 
f 47/246/40 45/247/40 145/235/40 
f 45/247/40 43/248/40 145/235/40 
f 43/248/40 41/249/40 145/235/40 
f 41/249/40 39/250/40 145/235/40 
f 39/250/40 37/251/40 145/235/40 
f 37/251/40 35/252/40 145/235/40 
f 35/252/40 33/253/40 145/235/40 
f 33/253/40 31/254/40 145/235/40 
f 31/254/40 29/255/40 145/235/40 
f 29/255/40 27/256/40 145/235/40 
f 27/256/40 25/257/40 145/235/40 
f 25/257/40 23/258/40 145/235/40 
f 23/258/40 21/259/40 145/235/40 
f 21/259/40 19/260/40 145/235/40 
f 19/260/40 17/261/40 145/235/40 
f 17/261/40 15/262/40 145/235/40 
f 15/262/40 13/263/40 145/235/40 
f 13/263/40 11/264/40 145/235/40 
f 11/264/40 9/265/40 145/235/40 
f 9/265/40 7/266/40 145/235/40 
f 7/266/40 5/267/40 145/235/40 
f 5/267/40 2/268/40 145/235/40 
f 2/268/40 1/269/40 145/235/40 
f 1/269/40 71/233/40 145/235/40 
f 110/270/41 109/271/42 146/272/43 
f 109/271/42 111/273/42 146/272/43 
f 111/273/42 112/274/42 146/272/43 
f 112/274/42 113/275/42 146/272/43 
f 113/275/42 114/276/42 146/272/43 
f 114/276/42 115/277/42 146/272/43 
f 115/277/42 116/278/42 146/272/43 
f 116/278/42 117/279/42 146/272/43 
f 117/279/42 118/280/42 146/272/43 
f 118/280/42 119/281/43 146/272/43 
f 119/281/43 120/282/43 146/272/43 
f 120/282/43 121/283/43 146/272/43 
f 121/283/43 122/284/43 146/272/43 
f 122/284/43 123/285/43 146/272/43 
f 123/285/43 124/286/43 146/272/43 
f 124/286/43 125/287/43 146/272/43 
f 125/287/43 126/288/43 146/272/43 
f 126/288/43 127/289/43 146/272/43 
f 127/289/43 128/290/38 146/272/43 
f 128/290/38 129/291/38 146/272/43 
f 129/291/38 130/292/38 146/272/43 
f 130/292/38 131/293/38 146/272/43 
f 131/293/38 132/294/38 146/272/43 
f 132/294/38 133/295/38 146/272/43 
f 133/295/38 134/296/38 146/272/43 
f 134/296/38 135/297/38 146/272/43 
f 135/297/38 136/298/38 146/272/43 
f 136/298/38 137/299/41 146/272/43 
f 137/299/41 138/300/41 146/272/43 
f 138/300/41 139/301/41 146/272/43 
f 139/301/41 140/302/41 146/272/43 
f 140/302/41 141/303/41 146/272/43 
f 141/303/41 142/304/41 146/272/43 
f 142/304/41 143/305/41 146/272/43 
f 143/305/41 144/306/41 146/272/43 
f 144/306/41 110/270/41 146/272/43 
# 108 polygons - 72 triangles

