# 3ds Max Wavefront OBJ Exporter v0.97b - (c)2007 guruware
# 创建的文件:22.05.2017 14:51:25

mtllib ShowCase.mtl

#
# object ShowCase
#

v  38.3505 0.0000 -27.9126
v  38.3505 0.0000 1.1454
v  -1.6495 0.0000 1.1454
v  -1.6495 0.0000 -27.9126
v  36.7172 54.0000 1.1454
v  36.7172 54.0000 -27.9126
v  -0.0162 54.0000 -27.9126
v  -0.0162 54.0000 1.1454
v  -0.0162 26.3873 -26.0909
v  -0.0162 1.3217 -26.0909
v  36.7172 1.3217 -26.0909
v  36.7172 26.3873 -26.0909
v  -0.0162 52.7462 -26.0909
v  -0.0162 27.6923 -26.0909
v  36.7172 27.6923 -26.0909
v  36.7172 52.7462 -26.0909
v  38.3505 54.5279 -27.9126
v  38.3505 54.5279 1.1454
v  -1.6495 0.8109 -0.8657
v  -1.6495 54.5279 -27.9126
v  -0.0162 52.7462 1.1454
v  36.7172 52.7462 1.1454
v  -0.0162 27.6923 -1.8994
v  -0.0162 26.3873 -1.8994
v  36.7172 26.3873 -1.8994
v  36.7172 27.6923 -1.8994
v  36.7172 1.3217 1.1454
v  -0.0162 1.3217 1.1454
v  36.7172 54.5279 -27.9126
v  36.7172 54.5279 1.1454
v  -1.6495 54.5279 1.1454
v  -0.0162 1.3217 -1.3828
v  36.7172 1.3217 -1.3828
v  36.7172 52.7462 -1.8994
v  -0.0162 52.7462 -1.3828
v  -0.0162 54.5279 1.1454
v  -0.0162 54.5279 -27.9126
v  -1.6495 53.2388 0.2049
v  -1.6495 53.2388 -0.8657
v  -1.6495 0.8109 0.2049
v  36.7172 53.2462 0.6288
v  -0.0162 53.2425 0.1863
v  -0.0162 53.2425 -0.8074
v  36.7172 53.2462 -1.3828
v  36.7172 52.7462 0.6288
v  36.7172 0.8217 0.6288
v  -0.0162 0.8163 0.1863
v  36.7172 0.8217 -1.3828
v  -0.0162 0.8163 -0.8074
v  -0.0162 52.7462 0.6288
v  36.7172 52.7462 -1.3828
v  36.7172 1.3217 0.6288
v  -0.0162 1.3217 0.6288
v  -0.0162 53.2462 -1.3828
v  -0.0162 53.2462 0.6288
v  -0.0162 0.8217 -1.3828
v  -0.0162 0.8217 0.6288
# 57 vertices

vn 0.0000 -1.0000 -0.0000
vn 0.0000 1.0000 -0.0000
vn -0.0000 -0.0000 1.0000
vn 0.0000 -0.0000 1.0000
vn 0.0000 0.0000 1.0000
vn 1.0000 0.0000 -0.0000
vn 0.0000 0.0000 -1.0000
vn -1.0000 0.0000 -0.0000
vn 1.0000 0.0000 0.0000
vn 1.0000 -0.0000 -0.0000
vn 0.0000 1.0000 0.0000
vn -1.0000 -0.0000 -0.0000
vn -1.0000 0.0000 0.0000
vn 0.0001 -1.0000 0.0001
vn 0.0008 -1.0000 0.0028
vn 0.0008 -1.0000 -0.0021
vn 0.0001 -1.0000 -0.0001
vn -1.0000 -0.0000 0.0000
vn -0.0012 1.0000 -0.0040
vn -0.0001 1.0000 -0.0001
vn -0.0001 1.0000 0.0001
vn -0.0012 1.0000 0.0031
vn 0.0000 -1.0000 0.0084
vn 0.0000 -1.0000 -0.0064
vn 0.0000 0.9999 -0.0121
vn 0.0000 1.0000 0.0093
vn -0.0033 1.0000 0.0000
vn -0.0114 -0.0000 -0.9999
vn -0.0114 0.0000 -0.9999
vn 0.0023 -1.0000 -0.0000
vn -0.0357 -0.0000 0.9994
vn -0.0357 0.0000 0.9994
# 32 vertex normals

vt 0.7785 0.8209 0.0000
vt 0.7785 0.9925 0.0000
vt 0.5422 0.9925 0.0000
vt 0.5422 0.8209 0.0000
vt 0.5449 0.6677 0.0000
vt 0.5449 0.4960 0.0000
vt 0.7619 0.4960 0.0000
vt 0.7619 0.6677 0.0000
vt 0.9882 0.5140 0.0000
vt 0.9882 0.6621 0.0000
vt 0.7712 0.6621 0.0000
vt 0.7712 0.5140 0.0000
vt 0.5382 0.6892 0.0000
vt 0.5382 0.8373 0.0000
vt 0.3212 0.8373 0.0000
vt 0.3212 0.6892 0.0000
vt 0.9902 0.3191 0.0000
vt 0.9902 0.4908 0.0000
vt 0.6680 0.4908 0.0000
vt 0.6680 0.3191 0.0000
vt 0.3280 0.5216 0.0000
vt 0.0090 0.5313 0.0000
vt 0.0090 0.2949 0.0000
vt 0.3280 0.3046 0.0000
vt 0.3427 0.3321 0.0000
vt 0.6600 0.4919 0.0000
vt 0.3379 0.4919 0.0000
vt 0.9829 0.2859 0.0000
vt 0.9755 0.2859 0.0000
vt 0.9755 0.0688 0.0000
vt 0.9829 0.0688 0.0000
vt 0.9152 0.1774 0.0000
vt 0.9152 0.1851 0.0000
vt 0.6981 0.1851 0.0000
vt 0.6981 0.1774 0.0000
vt 0.6639 0.0592 0.0000
vt 0.6717 0.0688 0.0000
vt 0.6717 0.2859 0.0000
vt 0.6639 0.2955 0.0000
vt 0.6957 0.2536 0.0000
vt 0.8674 0.2536 0.0000
vt 0.8674 0.2633 0.0000
vt 0.6957 0.2633 0.0000
vt 0.9861 0.2955 0.0000
vt 0.9861 0.0592 0.0000
vt 0.3311 0.5313 0.0000
vt 0.3311 0.2949 0.0000
vt 0.7614 0.8160 0.0000
vt 0.5444 0.8160 0.0000
vt 0.5444 0.6731 0.0000
vt 0.7614 0.6731 0.0000
vt 0.0122 0.1398 0.0000
vt 0.1603 0.1398 0.0000
vt 0.1603 0.2827 0.0000
vt 0.0122 0.2857 0.0000
vt 0.3204 0.8446 0.0000
vt 0.5374 0.8446 0.0000
vt 0.5374 0.9906 0.0000
vt 0.3204 0.9906 0.0000
vt 0.4814 0.2902 0.0000
vt 0.3333 0.2902 0.0000
vt 0.3333 0.1442 0.0000
vt 0.4814 0.1473 0.0000
vt 0.9871 0.8149 0.0000
vt 0.7700 0.8149 0.0000
vt 0.7700 0.6720 0.0000
vt 0.9871 0.6689 0.0000
vt 0.1680 0.1398 0.0000
vt 0.3160 0.1398 0.0000
vt 0.3160 0.2857 0.0000
vt 0.1680 0.2827 0.0000
vt 0.3199 0.5405 0.0000
vt 0.5370 0.5405 0.0000
vt 0.5370 0.6834 0.0000
vt 0.3199 0.6834 0.0000
vt 0.6372 0.2902 0.0000
vt 0.4891 0.2902 0.0000
vt 0.4891 0.1473 0.0000
vt 0.6372 0.1473 0.0000
vt 0.3333 0.5195 0.0000
vt 0.8684 0.2472 0.0000
vt 0.6967 0.2472 0.0000
vt 0.6967 0.2441 0.0000
vt 0.8684 0.2441 0.0000
vt 0.9861 0.0688 0.0000
vt 0.9861 0.2859 0.0000
vt 0.8684 0.2366 0.0000
vt 0.6967 0.2366 0.0000
vt 0.6967 0.2335 0.0000
vt 0.8684 0.2335 0.0000
vt 0.3333 0.3024 0.0000
vt 0.6937 0.2158 0.0000
vt 0.8654 0.2158 0.0000
vt 0.8654 0.2254 0.0000
vt 0.6937 0.2254 0.0000
vt 0.6524 0.3258 0.0000
vt 0.6600 0.3202 0.0000
vt 0.6524 0.3321 0.0000
vt 0.3379 0.3202 0.0000
vt 0.3427 0.3258 0.0000
vt 0.6982 0.0857 0.0000
vt 0.9152 0.0883 0.0000
vt 0.9152 0.0941 0.0000
vt 0.6982 0.0975 0.0000
vt 0.6372 0.1323 0.0000
vt 0.6401 0.1323 0.0000
vt 0.3304 0.1323 0.0000
vt 0.7017 0.2018 0.0000
vt 0.9188 0.1991 0.0000
vt 0.9188 0.2110 0.0000
vt 0.7017 0.2076 0.0000
vt 0.6980 0.1347 0.0000
vt 0.9150 0.1347 0.0000
vt 0.9150 0.1377 0.0000
vt 0.6980 0.1377 0.0000
vt 0.7817 0.6689 0.0000
vt 0.3333 0.1293 0.0000
vt 0.6372 0.1293 0.0000
vt 0.3333 0.1323 0.0000
vt 0.9134 0.1727 0.0000
vt 0.6964 0.1727 0.0000
vt 0.7047 0.1696 0.0000
vt 0.9134 0.1696 0.0000
vt 0.6499 0.0895 0.0000
vt 0.3461 0.0895 0.0000
vt 0.3461 0.0865 0.0000
vt 0.6499 0.0865 0.0000
vt 0.9163 0.1635 0.0000
vt 0.6993 0.1635 0.0000
vt 0.6993 0.1605 0.0000
vt 0.9163 0.1605 0.0000
vt 0.9150 0.1062 0.0000
vt 0.6980 0.1062 0.0000
vt 0.6980 0.1032 0.0000
vt 0.9150 0.1032 0.0000
vt 0.6970 0.1922 0.0000
vt 0.9141 0.1922 0.0000
vt 0.9141 0.1951 0.0000
vt 0.6970 0.1951 0.0000
vt 0.9152 0.0857 0.0000
vt 0.9152 0.0975 0.0000
vt 0.7017 0.1991 0.0000
vt 0.7017 0.2110 0.0000
vt 0.0092 0.2891 0.0000
vt 0.3431 0.0839 0.0000
vt 0.6528 0.0839 0.0000
vt 0.3190 0.2891 0.0000
vt 0.3211 0.2836 0.0000
vt 0.6529 0.0865 0.0000
vt 0.3431 0.0865 0.0000
vt 0.0148 0.2718 0.0000
vt 0.6921 0.2080 0.0000
vt 0.6921 0.2016 0.0000
vt 0.3417 0.0485 0.0000
vt 0.6514 0.0485 0.0000
vt 0.6515 0.0582 0.0000
vt 0.3417 0.0582 0.0000
vt 0.9248 0.0882 0.0000
vt 0.9248 0.0945 0.0000
vt 0.6530 0.0776 0.0000
vt 0.3432 0.0776 0.0000
vt 0.3432 0.0679 0.0000
vt 0.6530 0.0679 0.0000
vt 0.7000 0.1132 0.0000
vt 0.9088 0.1132 0.0000
vt 0.9171 0.1162 0.0000
vt 0.7000 0.1162 0.0000
vt 0.3359 0.1303 0.0000
vt 0.6375 0.1437 0.0000
vt 0.6372 0.1442 0.0000
# 170 texture coords

g ShowCase
usemtl Showcasebody
s off
f 1/1/1 2/2/1 3/3/1 4/4/1 
f 5/5/2 6/6/2 7/7/2 8/8/2 
f 9/9/3 10/10/3 11/11/3 12/12/4 
f 13/13/3 14/14/5 15/15/3 16/16/3 
f 17/17/6 18/18/6 2/19/6 1/20/6 
f 6/21/7 1/22/7 4/23/7 7/24/7 
f 19/25/8 20/26/8 4/27/8 
f 8/28/5 21/29/5 22/30/5 5/31/5 
f 23/32/5 24/33/5 25/34/5 26/35/5 
f 2/36/5 27/37/5 28/38/5 3/39/5 
f 18/40/2 17/41/2 29/42/2 30/43/2 
f 31/44/5 3/39/5 28/38/5 21/29/5 
f 2/36/5 18/45/5 22/30/5 27/37/5 
f 6/21/7 17/46/7 1/22/7 
f 4/23/7 20/47/7 7/24/7 
f 8/28/5 31/44/5 21/29/5 
f 22/30/5 18/45/5 5/31/5 
f 9/48/1 12/49/1 25/50/1 24/51/1 
f 10/52/9 9/53/6 24/54/10 32/55/9 
f 11/56/11 10/57/11 32/58/11 33/59/11 
f 12/60/12 11/61/12 33/62/12 25/63/12 
f 13/64/1 16/65/1 34/66/1 35/67/1 
f 14/68/6 13/69/6 35/70/6 23/71/9 
f 15/72/2 14/73/2 23/74/2 26/75/2 
f 16/76/12 15/77/12 26/78/8 34/79/12 
f 17/46/7 6/21/7 29/80/7 
f 6/81/13 5/82/13 30/83/13 29/84/13 
f 5/31/5 18/45/5 30/85/5 
f 8/28/5 36/86/5 31/44/5 
f 8/87/6 7/88/6 37/89/6 36/90/6 
f 7/24/7 20/47/7 37/91/7 
f 36/92/2 37/93/2 20/94/2 31/95/2 
f 38/96/8 31/97/8 20/26/8 39/98/8 
f 19/25/8 4/27/8 3/99/8 40/100/8 
f 41/101/14 42/102/15 43/103/16 44/104/17 
f 25/63/12 45/105/18 41/106/12 26/78/8 
f 46/107/18 25/63/12 33/62/12 
f 47/108/19 46/109/20 48/110/21 49/111/22 
f 22/112/1 21/113/1 50/114/1 45/115/1 
f 35/67/1 34/66/1 51/116/1 
f 27/117/18 22/118/12 45/105/18 25/63/12 
f 52/119/18 27/117/18 25/63/12 
f 28/120/2 27/121/2 52/122/2 53/123/2 
f 21/124/6 28/125/6 53/126/6 50/127/9 
f 35/128/5 51/129/5 44/130/5 54/131/5 
f 45/132/7 50/133/7 55/134/7 41/135/7 
f 33/136/5 32/137/5 56/138/5 48/139/5 
f 3/99/8 31/97/8 38/96/8 40/100/8 
f 39/98/8 20/26/8 19/25/8 
f 41/101/14 55/140/23 42/102/15 
f 43/103/16 54/141/24 44/104/17 
f 46/107/18 52/119/18 25/63/12 
f 47/108/19 57/142/25 46/109/20 
f 48/110/21 56/143/26 49/111/22 
f 32/55/9 24/54/10 49/144/9 
f 24/54/10 23/71/9 49/144/9 
f 50/127/9 53/126/6 47/145/6 42/146/9 
f 23/71/9 35/70/6 43/147/6 49/144/9 
f 43/147/6 35/70/6 54/148/6 
f 42/146/9 55/149/6 50/127/9 
f 47/145/6 53/126/6 57/150/6 
f 49/144/9 56/151/6 32/55/9 
f 19/152/27 40/153/27 47/108/19 49/111/22 
f 40/154/28 38/155/29 42/156/28 47/157/28 
f 38/158/30 39/159/30 43/103/16 42/102/15 
f 39/160/31 19/161/32 49/162/31 43/163/31 
f 53/164/7 52/165/7 46/166/7 57/167/7 
f 33/62/12 48/168/8 46/107/18 
f 41/106/12 44/169/8 51/170/18 
f 51/170/18 34/79/12 26/78/8 
f 41/106/12 51/170/18 26/78/8 
# 43 polygons - 28 triangles

#
# object ShowCaseDoor
#

v  33.8507 24.6462 -0.6649
v  33.8507 29.5527 -0.6649
v  36.5924 53.0689 -0.6649
v  36.5924 0.9143 -0.6649
v  36.5924 0.9143 0.0553
v  36.5924 53.0689 0.0553
v  33.8507 29.5527 0.0553
v  33.8507 24.6462 0.0553
v  0.2341 53.0689 -0.6649
v  0.2341 53.0689 0.0553
v  0.2341 0.9143 -0.6649
v  0.2341 0.9143 0.0553
v  30.2968 29.5527 -0.6649
v  30.2968 24.6462 -0.6649
v  30.2968 24.6462 0.0553
v  30.2968 29.5527 0.0553
v  32.9936 30.3532 -0.6649
v  32.0864 30.6434 -0.6649
v  32.9936 23.7050 -0.6649
v  32.9936 23.7050 0.0553
v  32.0864 23.4467 0.0553
v  32.9936 30.3532 0.0553
v  31.1792 30.3532 -0.6649
v  31.1792 23.7050 -0.6649
v  32.0864 23.4467 -0.6649
v  31.1792 23.7050 0.0553
v  31.1792 30.3532 0.0553
v  32.0864 30.6434 0.0553
# 28 vertices

vn 0.0000 0.0000 -1.0000
vn -0.0000 0.0000 -1.0000
vn 0.0000 -0.0000 1.0000
vn -0.0000 -0.0000 1.0000
vn 1.0000 0.0000 -0.0000
vn 0.0000 1.0000 -0.0000
vn -1.0000 0.0000 -0.0000
vn 0.0000 -1.0000 -0.0000
vn 0.4996 -0.8662 -0.0000
vn 0.6719 -0.7406 -0.0000
vn -0.5059 -0.8626 -0.0000
vn -0.0000 -1.0000 -0.0000
vn -0.5267 0.8500 -0.0000
vn -0.7393 0.6733 -0.0000
vn 0.5205 0.8538 -0.0000
vn -0.0000 1.0000 -0.0000
vn -0.6826 -0.7308 -0.0000
vn 0.7295 0.6840 -0.0000
# 18 vertex normals

vt 0.1749 0.7807 0.0000
vt 0.1459 0.7807 0.0000
vt 0.0061 0.7645 0.0000
vt 0.3154 0.7645 0.0000
vt 0.0063 0.5362 0.0000
vt 0.3156 0.5362 0.0000
vt 0.1758 0.5524 0.0000
vt 0.1468 0.5524 0.0000
vt 0.6470 0.1139 0.0000
vt 0.3377 0.1139 0.0000
vt 0.3377 0.1097 0.0000
vt 0.6470 0.1097 0.0000
vt 0.9188 0.1283 0.0000
vt 0.6938 0.1283 0.0000
vt 0.6938 0.1240 0.0000
vt 0.9188 0.1240 0.0000
vt 0.6495 0.0996 0.0000
vt 0.3402 0.0996 0.0000
vt 0.3402 0.0953 0.0000
vt 0.6495 0.0953 0.0000
vt 0.1459 0.8017 0.0000
vt 0.1749 0.8017 0.0000
vt 0.3154 0.9895 0.0000
vt 0.0061 0.9895 0.0000
vt 0.1468 0.5734 0.0000
vt 0.1758 0.5734 0.0000
vt 0.3156 0.7612 0.0000
vt 0.0063 0.7612 0.0000
vt 0.6953 0.1452 0.0000
vt 0.9203 0.1452 0.0000
vt 0.9203 0.1495 0.0000
vt 0.6953 0.1495 0.0000
vt 0.1412 0.7857 0.0000
vt 0.1395 0.7911 0.0000
vt 0.1805 0.7857 0.0000
vt 0.1413 0.5574 0.0000
vt 0.1397 0.5628 0.0000
vt 0.1806 0.5574 0.0000
vt 0.1412 0.7965 0.0000
vt 0.1805 0.7965 0.0000
vt 0.1820 0.7911 0.0000
vt 0.1413 0.5682 0.0000
vt 0.1806 0.5682 0.0000
vt 0.1823 0.5628 0.0000
vt 0.9496 0.3104 0.0000
vt 0.9496 0.3062 0.0000
vt 0.9548 0.3062 0.0000
vt 0.9548 0.3104 0.0000
vt 0.9389 0.3104 0.0000
vt 0.9389 0.3062 0.0000
vt 0.9442 0.3062 0.0000
vt 0.9442 0.3104 0.0000
vt 0.9338 0.3104 0.0000
vt 0.9048 0.3104 0.0000
vt 0.9048 0.3062 0.0000
vt 0.9338 0.3062 0.0000
vt 0.8993 0.3104 0.0000
vt 0.8993 0.3062 0.0000
vt 0.8885 0.3104 0.0000
vt 0.8885 0.3062 0.0000
vt 0.8939 0.3062 0.0000
vt 0.8939 0.3104 0.0000
vt 0.8830 0.3104 0.0000
vt 0.8540 0.3104 0.0000
vt 0.8540 0.3062 0.0000
vt 0.8830 0.3062 0.0000
# 66 texture coords

g ShowCaseDoor
usemtl ShowcaseDoor
s off
f 58/171/33 59/172/34 60/173/34 61/174/33 
f 62/175/35 63/176/36 64/177/36 65/178/35 
f 61/179/37 60/180/37 63/181/37 62/182/37 
f 60/183/38 66/184/38 67/185/38 63/186/38 
f 66/187/39 68/188/39 69/189/39 67/190/39 
f 70/191/34 71/192/34 68/193/34 66/194/33 
f 72/195/36 73/196/35 67/197/35 69/198/36 
f 62/199/40 69/200/40 68/201/40 61/202/40 
f 60/173/34 70/191/34 66/194/33 
f 71/192/34 61/174/33 68/193/34 
f 62/175/35 72/195/36 69/198/36 
f 73/196/35 63/176/36 67/197/35 
f 60/173/34 74/203/33 75/204/34 
f 61/174/33 76/205/34 58/171/33 
f 62/175/35 77/206/35 78/207/36 
f 63/176/36 79/208/36 64/177/36 
f 60/173/34 80/209/34 70/191/34 
f 61/174/33 81/210/33 82/211/33 
f 62/175/35 83/212/36 72/195/36 
f 63/176/36 84/213/35 85/214/35 
f 80/215/41 84/216/41 73/217/42 70/218/42 
f 74/219/43 79/220/43 85/221/40 75/222/44 
f 59/223/39 58/224/39 65/225/39 64/226/39 
f 76/227/45 77/228/45 65/225/46 58/224/46 
f 81/229/47 83/230/47 78/231/38 82/232/48 
f 71/233/37 70/234/37 73/235/37 72/236/37 
f 75/222/44 85/221/40 84/216/41 80/215/41 
f 59/223/49 64/226/49 79/220/43 74/219/43 
f 82/232/48 78/231/38 77/228/45 76/227/45 
f 71/233/50 72/236/50 83/230/47 81/229/47 
f 63/176/36 73/196/35 84/213/35 
f 63/176/36 85/214/35 79/208/36 
f 62/175/35 78/207/36 83/212/36 
f 62/175/35 65/178/35 77/206/35 
f 60/173/34 59/172/34 74/203/33 
f 60/173/34 75/204/34 80/209/34 
f 61/174/33 82/211/33 76/205/34 
f 61/174/33 71/192/34 81/210/33 
# 18 polygons - 20 triangles

