# 3ds Max Wavefront OBJ Exporter v0.97b - (c)2007 guruware
# 创建的文件:10.07.2017 09:12:31

mtllib Bumf_02.mtl

#
# object Bumf_02
#

v  -2.4516 1.4450 3.3138
v  -2.4516 0.9423 2.4848
v  -3.6774 0.9423 2.4848
v  -3.6774 1.4450 3.3138
v  -1.2258 1.4450 3.3138
v  0.0000 1.4450 3.3138
v  0.0000 0.9423 2.4848
v  -1.2258 0.9423 2.4848
v  2.4516 0.9423 2.4848
v  1.2258 0.9423 2.4848
v  1.2258 1.4450 3.3138
v  2.4516 1.4450 3.3138
v  4.9032 1.5532 3.2526
v  4.9032 0.9423 2.4848
v  3.6774 0.9423 2.4848
v  3.6774 1.4450 3.3138
v  -3.6774 0.4783 0.8268
v  -3.6774 0.6414 1.6558
v  -2.4516 0.6207 1.6558
v  -2.4516 0.4783 0.8268
v  -1.2258 0.4783 0.8268
v  -1.2258 0.6455 1.6558
v  0.0000 0.6207 1.6558
v  0.0000 0.4783 0.8268
v  2.4516 0.4783 0.8268
v  1.2258 0.4783 0.8268
v  1.2258 0.6207 1.6558
v  2.4516 0.6735 1.6558
v  4.9032 0.6735 1.6558
v  4.9032 0.4783 0.8268
v  3.6774 0.4783 0.8268
v  3.6774 0.6735 1.6558
v  -2.4516 0.4207 -0.0022
v  -2.4516 0.4783 -0.8312
v  -3.6774 0.4783 -0.8312
v  -3.6774 0.3908 -0.0022
v  0.0000 0.4283 -0.0022
v  0.0000 0.5159 -0.8312
v  -1.2258 0.4783 -0.8312
v  -1.2258 0.4552 -0.0022
v  1.2258 0.4283 -0.0022
v  2.4516 0.4283 -0.0022
v  2.4516 0.4783 -0.8312
v  1.2258 0.4783 -0.8312
v  4.9032 0.3908 -0.0022
v  4.9032 0.4783 -0.8312
v  3.6774 0.4783 -0.8312
v  3.6774 0.3908 -0.0022
v  -3.6774 0.6207 -1.6602
v  -2.4516 0.6207 -1.6602
v  -2.4516 0.9423 -2.4891
v  -3.6774 0.9423 -2.4891
v  -1.2258 0.9423 -2.4891
v  -1.2258 0.6207 -1.6602
v  0.0000 0.6207 -1.6602
v  0.0000 0.9423 -2.4891
v  2.4516 0.6813 -1.6602
v  2.4516 0.9423 -2.4891
v  1.2258 0.9423 -2.4891
v  1.2258 0.6813 -1.6602
v  4.9032 0.7925 -1.6602
v  4.9032 1.0351 -2.4160
v  3.6774 1.0351 -2.4600
v  3.6774 0.6677 -1.6602
v  -4.9032 0.6207 1.6558
v  -4.9032 0.9423 2.4848
v  -4.9032 0.3908 -0.0022
v  -4.9032 0.4783 0.8268
v  -4.9032 0.6207 -1.6602
v  -4.9032 0.4783 -0.8312
v  -3.6774 1.4450 -3.3181
v  -4.9032 1.4450 -3.3181
v  -4.9032 0.9423 -2.4891
v  -1.2258 1.4450 -3.3181
v  -2.4516 1.4450 -3.3181
v  1.2258 1.4450 -3.3181
v  0.0000 1.4450 -3.3181
v  3.6774 1.5378 -3.2450
v  2.4516 1.4450 -3.3181
v  4.9032 1.5378 -3.2450
v  -4.9032 1.4450 3.3138
v  -2.4516 1.4996 3.3138
v  -2.4516 0.9968 2.4848
v  -3.6774 0.9968 2.4848
v  -3.6774 1.4996 3.3138
v  0.0000 1.4996 3.3138
v  0.0000 0.9968 2.4848
v  -1.2258 0.9968 2.4848
v  -1.2258 1.4996 3.3138
v  2.4516 1.4996 3.3138
v  2.4516 0.9968 2.4848
v  1.2258 0.9968 2.4848
v  1.2258 1.4996 3.3138
v  4.9032 1.6078 3.2526
v  4.9032 0.9968 2.4848
v  3.6774 0.9968 2.4848
v  3.6774 1.4996 3.3138
v  -2.4516 0.6753 1.6558
v  -2.4516 0.5329 0.8268
v  -3.6774 0.5329 0.8268
v  -3.6774 0.6960 1.6558
v  0.0000 0.6753 1.6558
v  0.0000 0.5329 0.8268
v  -1.2258 0.5329 0.8268
v  -1.2258 0.7001 1.6558
v  2.4516 0.7281 1.6558
v  2.4516 0.5329 0.8268
v  1.2258 0.5329 0.8268
v  1.2258 0.6753 1.6558
v  4.9032 0.7281 1.6558
v  4.9032 0.5329 0.8268
v  3.6774 0.5329 0.8268
v  3.6774 0.7281 1.6558
v  -2.4516 0.4753 -0.0022
v  -2.4516 0.5329 -0.8312
v  -3.6774 0.5329 -0.8312
v  -3.6774 0.4454 -0.0022
v  0.0000 0.4829 -0.0022
v  0.0000 0.5705 -0.8312
v  -1.2258 0.5329 -0.8312
v  -1.2258 0.5097 -0.0022
v  2.4516 0.4829 -0.0022
v  2.4516 0.5329 -0.8312
v  1.2258 0.5329 -0.8312
v  1.2258 0.4829 -0.0022
v  4.9032 0.4454 -0.0022
v  4.9032 0.5329 -0.8312
v  3.6774 0.5329 -0.8312
v  3.6774 0.4454 -0.0022
v  -2.4516 0.6753 -1.6602
v  -2.4516 0.9968 -2.4891
v  -3.6774 0.9968 -2.4891
v  -3.6774 0.6753 -1.6602
v  0.0000 0.6753 -1.6602
v  0.0000 0.9968 -2.4891
v  -1.2258 0.9968 -2.4891
v  -1.2258 0.6753 -1.6602
v  2.4516 0.7359 -1.6602
v  2.4516 0.9968 -2.4891
v  1.2258 0.9968 -2.4891
v  1.2258 0.7359 -1.6602
v  4.9032 0.8470 -1.6602
v  4.9032 1.0897 -2.4160
v  3.6774 1.0897 -2.4600
v  3.6774 0.7223 -1.6602
v  -4.9032 0.6753 1.6558
v  -4.9032 0.9968 2.4848
v  -4.9032 0.4454 -0.0022
v  -4.9032 0.5329 0.8268
v  -4.9032 0.6753 -1.6602
v  -4.9032 0.5329 -0.8312
v  -3.6774 1.4996 -3.3181
v  -4.9032 1.4996 -3.3181
v  -4.9032 0.9968 -2.4891
v  -1.2258 1.4996 -3.3181
v  -2.4516 1.4996 -3.3181
v  1.2258 1.4996 -3.3181
v  0.0000 1.4996 -3.3181
v  3.6774 1.5924 -3.2450
v  2.4516 1.4996 -3.3181
v  4.9032 1.5924 -3.2450
v  -4.9032 1.4996 3.3138
v  2.4516 1.6082 -3.3181
v  2.4516 1.1055 -2.4891
v  3.6774 1.1055 -2.4891
v  3.6774 1.7447 -3.3181
v  0.0000 1.6082 -3.3181
v  0.0000 1.1055 -2.4891
v  1.2258 1.1055 -2.4891
v  1.2258 1.6082 -3.3181
v  -2.4516 1.6082 -3.3181
v  -2.4516 1.1055 -2.4891
v  -1.2258 1.1055 -2.4891
v  -1.2258 1.6082 -3.3181
v  -4.9032 1.6128 -3.2570
v  -4.9032 1.1055 -2.4891
v  -3.6774 1.1055 -2.4891
v  -3.6774 1.6082 -3.3181
v  2.4516 0.7839 -1.6601
v  2.4516 0.6416 -0.8312
v  3.6774 0.6416 -0.8312
v  3.6774 0.8046 -1.6601
v  0.0000 0.7839 -1.6601
v  0.0000 0.6416 -0.8312
v  1.2258 0.6416 -0.8312
v  1.2258 0.8088 -1.6601
v  -2.4516 0.8367 -1.6601
v  -2.4516 0.6416 -0.8312
v  -1.2258 0.6416 -0.8312
v  -1.2258 0.7839 -1.6601
v  -4.9032 0.8367 -1.6602
v  -4.9032 0.6416 -0.8312
v  -3.6774 0.6416 -0.8312
v  -3.6774 0.8367 -1.6602
v  2.4516 0.5840 -0.0022
v  2.4516 0.6416 0.8268
v  3.6774 0.6416 0.8268
v  3.6774 0.5540 -0.0022
v  0.0000 0.5916 -0.0022
v  0.0000 0.6791 0.8268
v  1.2258 0.6416 0.8268
v  1.2258 0.6184 -0.0022
v  -2.4516 0.5916 -0.0022
v  -2.4516 0.6416 0.8268
v  -1.2258 0.6416 0.8268
v  -1.2258 0.5916 -0.0022
v  -4.9032 0.5540 -0.0022
v  -4.9032 0.6416 0.8268
v  -3.6774 0.6416 0.8268
v  -3.6774 0.5540 -0.0022
v  2.4516 0.7839 1.6558
v  2.4516 1.1055 2.4848
v  3.6774 1.1055 2.4848
v  3.6774 0.7839 1.6558
v  0.0000 0.7839 1.6558
v  0.0000 1.1055 2.4848
v  1.2258 1.1055 2.4848
v  1.2258 0.7839 1.6558
v  -2.4516 0.8445 1.6558
v  -2.4516 1.1055 2.4848
v  -1.2258 1.1055 2.4848
v  -1.2258 0.8445 1.6558
v  -4.9032 0.8734 1.6558
v  -4.9032 1.1437 2.4116
v  -3.6774 1.1983 2.4556
v  -3.6774 0.8310 1.6558
v  4.9032 0.8712 -1.6601
v  4.9032 1.1804 -2.4891
v  4.9032 0.5540 -0.0022
v  4.9032 0.6416 -0.8312
v  4.9032 0.7839 1.6558
v  4.9032 0.6416 0.8268
v  3.6774 1.6082 3.3138
v  4.9032 1.7080 3.3138
v  4.9032 1.1055 2.4848
v  1.2258 1.6082 3.3138
v  2.4516 1.6082 3.3138
v  -1.2258 1.6082 3.3138
v  -0.0000 1.6082 3.3138
v  -3.6774 1.5555 3.2406
v  -2.4516 1.6082 3.3138
v  -4.9032 1.5869 3.2406
v  4.9032 1.6943 -3.3181
v  -2.4516 1.7364 3.3138
v  -2.4516 1.2336 2.4848
v  -3.6774 1.2336 2.4848
v  -3.6774 1.7364 3.3138
v  0.0000 1.7364 3.3138
v  0.0000 1.2336 2.4848
v  -1.2258 1.2336 2.4848
v  -1.2258 1.7364 3.3138
v  2.4516 1.7364 3.3138
v  2.4516 1.2336 2.4848
v  1.2258 1.2336 2.4848
v  1.2258 1.7364 3.3138
v  4.9032 1.8446 3.2526
v  4.9032 1.2336 2.4848
v  3.6774 1.2336 2.4848
v  3.6774 1.7364 3.3138
v  -2.4516 0.9121 1.6558
v  -2.4516 0.7697 0.8268
v  -3.6774 0.7697 0.8268
v  -3.6774 0.9328 1.6558
v  0.0000 0.9121 1.6558
v  0.0000 0.7697 0.8268
v  -1.2258 0.7697 0.8268
v  -1.2258 0.9369 1.6558
v  2.4516 0.9649 1.6558
v  2.4516 0.7697 0.8268
v  1.2258 0.7697 0.8268
v  1.2258 0.9121 1.6558
v  4.9032 0.9649 1.6558
v  4.9032 0.7697 0.8268
v  3.6774 0.7697 0.8268
v  3.6774 0.9649 1.6558
v  -2.4516 0.7121 -0.0022
v  -2.4516 0.7697 -0.8312
v  -3.6774 0.7697 -0.8312
v  -3.6774 0.6822 -0.0022
v  0.0000 0.7197 -0.0022
v  0.0000 0.8073 -0.8312
v  -1.2258 0.7697 -0.8312
v  -1.2258 0.7465 -0.0022
v  2.4516 0.7197 -0.0022
v  2.4516 0.7697 -0.8312
v  1.2258 0.7697 -0.8312
v  1.2258 0.7197 -0.0022
v  4.9032 0.6822 -0.0022
v  4.9032 0.7697 -0.8312
v  3.6774 0.7697 -0.8312
v  3.6774 0.6822 -0.0022
v  -2.4516 0.9121 -1.6602
v  -2.4516 1.2336 -2.4891
v  -3.6774 1.2336 -2.4891
v  -3.6774 0.9121 -1.6602
v  0.0000 0.9121 -1.6602
v  0.0000 1.2336 -2.4891
v  -1.2258 1.2336 -2.4891
v  -1.2258 0.9121 -1.6602
v  2.4516 0.9727 -1.6602
v  2.4516 1.2336 -2.4891
v  1.2258 1.2336 -2.4891
v  1.2258 0.9727 -1.6602
v  3.6774 0.9591 -1.6602
v  4.9032 1.0838 -1.6602
v  4.9032 1.3265 -2.4160
v  3.6774 1.3265 -2.4600
v  -4.9032 0.9121 1.6558
v  -4.9032 1.2336 2.4848
v  -4.9032 0.6822 -0.0022
v  -4.9032 0.7697 0.8268
v  -4.9032 0.9121 -1.6602
v  -4.9032 0.7697 -0.8312
v  -3.6774 1.7364 -3.3181
v  -4.9032 1.7364 -3.3181
v  -4.9032 1.2336 -2.4891
v  -1.2258 1.7364 -3.3181
v  -2.4516 1.7364 -3.3181
v  1.2258 1.7364 -3.3181
v  0.0000 1.7364 -3.3181
v  3.6774 1.8292 -3.2450
v  2.4516 1.7364 -3.3181
v  4.9032 1.8292 -3.2450
v  -4.9032 1.7364 3.3138
# 324 vertices

vn 0.0000 0.8551 -0.5185
vn 0.0000 0.8971 -0.4418
vn 0.0000 0.9000 -0.4359
vn 0.0000 0.9006 -0.4347
vn 0.0000 0.9092 -0.4163
vn -0.0061 0.8995 -0.4368
vn -0.0997 0.7786 -0.6195
vn -0.0291 0.8931 -0.4489
vn -0.0215 0.8404 -0.5415
vn -0.0063 0.9896 -0.1435
vn -0.0025 0.9640 -0.2659
vn 0.0020 0.9644 -0.2646
vn 0.0026 0.9926 -0.1217
vn -0.0040 0.9931 -0.1174
vn -0.0030 0.9641 -0.2656
vn 0.0069 0.9645 -0.2641
vn 0.0031 0.9930 -0.1177
vn -0.0065 0.9902 -0.1394
vn 0.0000 0.9934 -0.1149
vn -0.0141 0.9622 -0.2721
vn -0.0145 0.9615 -0.2746
vn 0.0000 0.9631 -0.2690
vn 0.0000 0.9859 -0.1674
vn 0.0047 0.9866 -0.1632
vn -0.0137 0.9999 -0.0034
vn -0.0038 0.9924 0.1228
vn 0.0000 0.9905 0.1372
vn -0.0084 1.0000 -0.0034
vn 0.0123 0.9997 0.0213
vn 0.0081 0.9941 0.1080
vn -0.0149 0.9950 0.0985
vn -0.0113 0.9999 0.0073
vn 0.0000 1.0000 -0.0000
vn 0.0058 1.0000 -0.0000
vn 0.0000 0.9887 0.1496
vn -0.0016 0.9897 0.1430
vn 0.0000 0.9728 0.2316
vn -0.0086 0.9845 0.1749
vn 0.0153 0.9999 -0.0000
vn 0.0000 0.9638 0.2668
vn 0.0000 0.8971 0.4418
vn -0.0093 0.9673 0.2536
vn -0.0100 0.9600 0.2797
vn -0.0392 0.9105 0.4117
vn -0.0071 0.9083 0.4183
vn -0.0238 0.9628 0.2692
vn -0.0680 0.9502 0.3042
vn -0.0422 0.8998 0.4343
vn -0.0342 0.8848 0.4647
vn -0.0311 0.9501 0.3104
vn -0.0064 0.9637 -0.2668
vn 0.0000 0.9905 -0.1372
vn 0.0000 0.8551 0.5185
vn -0.0480 0.8412 0.5387
vn -0.0422 0.8517 0.5224
vn -0.0109 0.8497 0.5271
vn -0.0483 0.8541 0.5179
vn -0.0132 0.8914 0.4529
vn -0.0170 0.8805 0.4737
vn -0.0035 0.8060 0.5919
vn 0.0000 0.9006 0.4347
vn 0.0000 0.9092 0.4163
vn 0.0061 0.8995 0.4368
vn 0.0306 0.8340 0.5509
vn 0.0088 0.9045 0.4263
vn 0.0062 0.8510 0.5252
vn -0.0020 0.9644 0.2646
vn -0.0026 0.9926 0.1217
vn -0.0044 0.9882 0.1531
vn -0.0317 0.9637 0.2653
vn -0.0069 0.9645 0.2641
vn -0.0031 0.9930 0.1177
vn 0.0040 0.9931 0.1174
vn 0.0030 0.9641 0.2656
vn 0.0145 0.9615 0.2746
vn 0.0065 0.9902 0.1394
vn 0.0000 0.9934 0.1149
vn 0.0141 0.9622 0.2721
vn 0.0000 0.9631 0.2690
vn 0.0000 0.9859 0.1674
vn -0.0047 0.9866 0.1632
vn 0.0137 0.9999 0.0034
vn 0.0038 0.9924 -0.1228
vn 0.0084 1.0000 0.0034
vn -0.0123 0.9997 -0.0213
vn -0.0081 0.9941 -0.1080
vn 0.0149 0.9950 -0.0985
vn 0.0113 0.9999 -0.0073
vn -0.0058 1.0000 -0.0000
vn 0.0000 0.9887 -0.1496
vn 0.0016 0.9897 -0.1430
vn 0.0000 0.9822 -0.1878
vn -0.0012 0.9861 -0.1661
vn -0.0153 0.9999 -0.0000
vn 0.0000 0.9638 -0.2668
vn -0.0097 0.8930 -0.4500
vn 0.0093 0.9673 -0.2536
vn 0.0100 0.9600 -0.2797
vn 0.0392 0.9105 -0.4117
vn 0.0071 0.9083 -0.4183
vn 0.0238 0.9628 -0.2692
vn 0.0229 0.9554 -0.2946
vn -0.0058 0.9079 -0.4192
vn 0.0074 0.9064 -0.4223
vn 0.0023 0.9495 -0.3138
vn -0.0378 0.9553 0.2932
vn -0.0547 0.8957 0.4412
vn 0.0000 0.9824 0.1866
vn -0.0352 0.8545 -0.5182
vn -0.0297 0.8289 -0.5586
vn 0.0000 0.8779 -0.4788
vn 0.0041 0.9102 -0.4141
vn 0.0202 0.8664 -0.4990
vn -0.0045 0.8934 -0.4493
vn -0.0140 0.8249 0.5652
# 115 vertex normals

vt 0.7455 0.6748 0.0000
vt 0.7455 0.5918 0.0000
vt 0.8682 0.5918 0.0000
vt 0.8682 0.6748 0.0000
vt 0.6227 0.6748 0.0000
vt 0.5000 0.6748 0.0000
vt 0.5000 0.5918 0.0000
vt 0.6227 0.5918 0.0000
vt 0.2545 0.5918 0.0000
vt 0.3773 0.5918 0.0000
vt 0.3773 0.6748 0.0000
vt 0.2545 0.6748 0.0000
vt 0.0090 0.6748 0.0000
vt 0.0090 0.5918 0.0000
vt 0.1318 0.5918 0.0000
vt 0.1318 0.6748 0.0000
vt 0.8682 0.4257 0.0000
vt 0.8682 0.5088 0.0000
vt 0.7455 0.5088 0.0000
vt 0.7455 0.4257 0.0000
vt 0.6227 0.4257 0.0000
vt 0.6227 0.5088 0.0000
vt 0.5000 0.5088 0.0000
vt 0.5000 0.4257 0.0000
vt 0.2545 0.4257 0.0000
vt 0.3773 0.4257 0.0000
vt 0.3773 0.5088 0.0000
vt 0.2545 0.5088 0.0000
vt 0.0090 0.5088 0.0000
vt 0.0090 0.4257 0.0000
vt 0.1318 0.4257 0.0000
vt 0.1318 0.5088 0.0000
vt 0.7455 0.3427 0.0000
vt 0.7455 0.2597 0.0000
vt 0.8682 0.2597 0.0000
vt 0.8682 0.3427 0.0000
vt 0.5000 0.3427 0.0000
vt 0.5000 0.2597 0.0000
vt 0.6227 0.2597 0.0000
vt 0.6227 0.3427 0.0000
vt 0.3773 0.3427 0.0000
vt 0.2545 0.3427 0.0000
vt 0.2545 0.2597 0.0000
vt 0.3773 0.2597 0.0000
vt 0.0090 0.3427 0.0000
vt 0.0090 0.2597 0.0000
vt 0.1318 0.2597 0.0000
vt 0.1318 0.3427 0.0000
vt 0.8682 0.1767 0.0000
vt 0.7455 0.1767 0.0000
vt 0.7455 0.0937 0.0000
vt 0.8682 0.0937 0.0000
vt 0.6227 0.0937 0.0000
vt 0.6227 0.1767 0.0000
vt 0.5000 0.1767 0.0000
vt 0.5000 0.0937 0.0000
vt 0.2545 0.1767 0.0000
vt 0.2545 0.0937 0.0000
vt 0.3773 0.0937 0.0000
vt 0.3773 0.1767 0.0000
vt 0.0090 0.1767 0.0000
vt 0.0090 0.0937 0.0000
vt 0.1318 0.0937 0.0000
vt 0.1318 0.1767 0.0000
vt 0.9910 0.5088 0.0000
vt 0.9910 0.5918 0.0000
vt 0.9910 0.3427 0.0000
vt 0.9910 0.4257 0.0000
vt 0.9910 0.1767 0.0000
vt 0.9910 0.2597 0.0000
vt 0.8682 0.0107 0.0000
vt 0.9910 0.0107 0.0000
vt 0.9910 0.0937 0.0000
vt 0.6227 0.0107 0.0000
vt 0.7455 0.0107 0.0000
vt 0.3773 0.0107 0.0000
vt 0.5000 0.0107 0.0000
vt 0.1318 0.0107 0.0000
vt 0.2545 0.0107 0.0000
vt 0.0090 0.0107 0.0000
vt 0.9910 0.6748 0.0000
# 81 texture coords

g Bumf_02
usemtl _BumfBumf
s 1
f 1/1/1 2/2/2 3/3/3 4/4/1 
f 5/5/1 6/6/1 7/7/2 8/8/4 
f 9/9/5 10/10/6 11/11/1 12/12/1 
f 13/13/7 14/14/8 15/15/5 16/16/9 
f 17/17/10 18/18/11 19/19/12 20/20/13 
f 21/21/14 22/22/15 23/23/16 24/24/17 
f 25/25/18 26/26/19 27/27/20 28/28/21 
f 29/29/22 30/30/23 31/31/24 32/32/22 
f 33/33/25 34/34/26 35/35/27 36/36/28 
f 37/37/29 38/38/30 39/39/31 40/40/32 
f 41/41/33 42/42/34 43/43/35 44/44/36 
f 45/45/33 46/46/37 47/47/38 48/48/39 
f 49/49/40 50/50/40 51/51/41 52/52/41 
f 53/53/41 54/54/40 55/55/42 56/56/41 
f 57/57/43 58/58/44 59/59/45 60/60/46 
f 61/61/47 62/62/48 63/63/49 64/64/50 
f 18/18/11 65/65/51 66/66/2 3/3/3 
f 8/8/4 22/22/15 19/19/12 2/2/2 
f 10/10/6 27/27/20 23/23/16 7/7/2 
f 28/28/21 9/9/5 15/15/5 32/32/22 
f 17/17/10 36/36/28 67/67/33 68/68/52 
f 21/21/14 40/40/32 33/33/25 20/20/13 
f 37/37/29 24/24/17 26/26/19 41/41/33 
f 48/48/39 42/42/34 25/25/18 31/31/24 
f 49/49/40 69/69/40 70/70/27 35/35/27 
f 54/54/40 50/50/40 34/34/26 39/39/31 
f 60/60/46 55/55/42 38/38/30 44/44/36 
f 64/64/50 57/57/43 43/43/35 47/47/38 
f 71/71/53 72/72/53 73/73/41 52/52/41 
f 74/74/53 75/75/53 51/51/41 53/53/41 
f 76/76/53 77/77/53 56/56/41 59/59/45 
f 78/78/54 79/79/55 58/58/44 63/63/49 
f 2/2/2 19/19/12 18/18/11 3/3/3 
f 8/8/4 7/7/2 23/23/16 22/22/15 
f 10/10/6 9/9/5 28/28/21 27/27/20 
f 15/15/5 14/14/8 29/29/22 32/32/22 
f 36/36/28 17/17/10 20/20/13 33/33/25 
f 40/40/32 21/21/14 24/24/17 37/37/29 
f 42/42/34 41/41/33 26/26/19 25/25/18 
f 30/30/23 45/45/33 48/48/39 31/31/24 
f 34/34/26 50/50/40 49/49/40 35/35/27 
f 38/38/30 55/55/42 54/54/40 39/39/31 
f 43/43/35 57/57/43 60/60/46 44/44/36 
f 46/46/37 61/61/47 64/64/50 47/47/38 
f 51/51/41 75/75/53 71/71/53 52/52/41 
f 56/56/41 77/77/53 74/74/53 53/53/41 
f 58/58/44 79/79/55 76/76/53 59/59/45 
f 62/62/48 80/80/56 78/78/54 63/63/49 
f 66/66/2 81/81/1 4/4/1 3/3/3 
f 8/8/4 2/2/2 1/1/1 5/5/1 
f 11/11/1 10/10/6 7/7/2 6/6/1 
f 16/16/9 15/15/5 9/9/5 12/12/1 
f 17/17/10 68/68/52 65/65/51 18/18/11 
f 21/21/14 20/20/13 19/19/12 22/22/15 
f 26/26/19 24/24/17 23/23/16 27/27/20 
f 31/31/24 25/25/18 28/28/21 32/32/22 
f 35/35/27 70/70/27 67/67/33 36/36/28 
f 39/39/31 34/34/26 33/33/25 40/40/32 
f 37/37/29 41/41/33 44/44/36 38/38/30 
f 47/47/38 43/43/35 42/42/34 48/48/39 
f 73/73/41 69/69/40 49/49/40 52/52/41 
f 50/50/40 54/54/40 53/53/41 51/51/41 
f 59/59/45 56/56/41 55/55/42 60/60/46 
f 63/63/49 58/58/44 57/57/43 64/64/50 
f 82/1/1 83/2/2 84/3/3 85/4/1 
f 86/6/1 87/7/2 88/8/4 89/5/1 
f 90/12/1 91/9/5 92/10/6 93/11/1 
f 94/13/7 95/14/8 96/15/5 97/16/9 
f 98/19/12 99/20/13 100/17/10 101/18/11 
f 102/23/16 103/24/17 104/21/14 105/22/15 
f 106/28/21 107/25/18 108/26/19 109/27/20 
f 110/29/22 111/30/23 112/31/24 113/32/22 
f 114/33/25 115/34/26 116/35/27 117/36/28 
f 118/37/29 119/38/30 120/39/31 121/40/32 
f 122/42/34 123/43/35 124/44/36 125/41/33 
f 126/45/33 127/46/37 128/47/38 129/48/39 
f 130/50/40 131/51/41 132/52/41 133/49/40 
f 134/55/42 135/56/41 136/53/41 137/54/40 
f 138/57/43 139/58/44 140/59/45 141/60/46 
f 142/61/47 143/62/48 144/63/49 145/64/50 
f 101/18/11 146/65/51 147/66/2 84/3/3 
f 105/22/15 98/19/12 83/2/2 88/8/4 
f 109/27/20 102/23/16 87/7/2 92/10/6 
f 113/32/22 106/28/21 91/9/5 96/15/5 
f 117/36/28 148/67/33 149/68/52 100/17/10 
f 121/40/32 114/33/25 99/20/13 104/21/14 
f 125/41/33 118/37/29 103/24/17 108/26/19 
f 129/48/39 122/42/34 107/25/18 112/31/24 
f 133/49/40 150/69/40 151/70/27 116/35/27 
f 137/54/40 130/50/40 115/34/26 120/39/31 
f 141/60/46 134/55/42 119/38/30 124/44/36 
f 145/64/50 138/57/43 123/43/35 128/47/38 
f 152/71/53 153/72/53 154/73/41 132/52/41 
f 155/74/53 156/75/53 131/51/41 136/53/41 
f 157/76/53 158/77/53 135/56/41 140/59/45 
f 159/78/54 160/79/55 139/58/44 144/63/49 
f 83/2/2 98/19/12 101/18/11 84/3/3 
f 87/7/2 102/23/16 105/22/15 88/8/4 
f 92/10/6 91/9/5 106/28/21 109/27/20 
f 95/14/8 110/29/22 113/32/22 96/15/5 
f 99/20/13 114/33/25 117/36/28 100/17/10 
f 103/24/17 118/37/29 121/40/32 104/21/14 
f 107/25/18 122/42/34 125/41/33 108/26/19 
f 111/30/23 126/45/33 129/48/39 112/31/24 
f 115/34/26 130/50/40 133/49/40 116/35/27 
f 119/38/30 134/55/42 137/54/40 120/39/31 
f 123/43/35 138/57/43 141/60/46 124/44/36 
f 127/46/37 142/61/47 145/64/50 128/47/38 
f 131/51/41 156/75/53 152/71/53 132/52/41 
f 135/56/41 158/77/53 155/74/53 136/53/41 
f 139/58/44 160/79/55 157/76/53 140/59/45 
f 144/63/49 143/62/48 161/80/56 159/78/54 
f 147/66/2 162/81/1 85/4/1 84/3/3 
f 83/2/2 82/1/1 89/5/1 88/8/4 
f 87/7/2 86/6/1 93/11/1 92/10/6 
f 91/9/5 90/12/1 97/16/9 96/15/5 
f 149/68/52 146/65/51 101/18/11 100/17/10 
f 99/20/13 98/19/12 105/22/15 104/21/14 
f 103/24/17 102/23/16 109/27/20 108/26/19 
f 107/25/18 106/28/21 113/32/22 112/31/24 
f 151/70/27 148/67/33 117/36/28 116/35/27 
f 115/34/26 114/33/25 121/40/32 120/39/31 
f 119/38/30 118/37/29 125/41/33 124/44/36 
f 123/43/35 122/42/34 129/48/39 128/47/38 
f 154/73/41 150/69/40 133/49/40 132/52/41 
f 131/51/41 130/50/40 137/54/40 136/53/41 
f 135/56/41 134/55/42 141/60/46 140/59/45 
f 139/58/44 138/57/43 145/64/50 144/63/49 
f 163/1/57 164/2/58 165/3/59 166/4/60 
f 167/6/53 168/7/41 169/8/61 170/5/53 
f 171/12/53 172/9/62 173/10/63 174/11/53 
f 175/13/64 176/14/65 177/15/62 178/16/66 
f 179/19/67 180/20/68 181/17/69 182/18/70 
f 183/23/71 184/24/72 185/21/73 186/22/74 
f 187/28/75 188/25/76 189/26/77 190/27/78 
f 191/29/79 192/30/80 193/31/81 194/32/79 
f 195/33/82 196/34/83 197/35/52 198/36/84 
f 199/37/85 200/38/86 201/39/87 202/40/88 
f 203/42/89 204/43/90 205/44/91 206/41/33 
f 207/45/33 208/46/92 209/47/93 210/48/94 
f 211/50/95 212/51/2 213/52/96 214/49/95 
f 215/55/97 216/56/2 217/53/2 218/54/95 
f 219/57/98 220/58/99 221/59/100 222/60/101 
f 223/61/102 224/62/103 225/63/104 226/64/105 
f 182/18/70 227/65/106 228/66/107 165/3/59 
f 186/22/74 179/19/67 164/2/58 169/8/61 
f 190/27/78 183/23/71 168/7/41 173/10/63 
f 194/32/79 187/28/75 172/9/62 177/15/62 
f 198/36/84 229/67/33 230/68/108 181/17/69 
f 202/40/88 195/33/82 180/20/68 185/21/73 
f 206/41/33 199/37/85 184/24/72 189/26/77 
f 210/48/94 203/42/89 188/25/76 193/31/81 
f 214/49/95 231/69/95 232/70/52 197/35/52 
f 218/54/95 211/50/95 196/34/83 201/39/87 
f 222/60/101 215/55/97 200/38/86 205/44/91 
f 226/64/105 219/57/98 204/43/90 209/47/93 
f 233/71/109 234/72/110 235/73/111 213/52/96 
f 236/74/1 237/75/1 212/51/2 217/53/2 
f 238/76/1 239/77/1 216/56/2 221/59/100 
f 240/78/112 241/79/113 220/58/99 225/63/104 
f 164/2/58 179/19/67 182/18/70 165/3/59 
f 168/7/41 183/23/71 186/22/74 169/8/61 
f 173/10/63 172/9/62 187/28/75 190/27/78 
f 176/14/65 191/29/79 194/32/79 177/15/62 
f 180/20/68 195/33/82 198/36/84 181/17/69 
f 184/24/72 199/37/85 202/40/88 185/21/73 
f 188/25/76 203/42/89 206/41/33 189/26/77 
f 192/30/80 207/45/33 210/48/94 193/31/81 
f 196/34/83 211/50/95 214/49/95 197/35/52 
f 200/38/86 215/55/97 218/54/95 201/39/87 
f 204/43/90 219/57/98 222/60/101 205/44/91 
f 208/46/92 223/61/102 226/64/105 209/47/93 
f 212/51/2 237/75/1 233/71/109 213/52/96 
f 216/56/2 239/77/1 236/74/1 217/53/2 
f 220/58/99 241/79/113 238/76/1 221/59/100 
f 225/63/104 224/62/103 242/80/114 240/78/112 
f 228/66/107 243/81/115 166/4/60 165/3/59 
f 164/2/58 163/1/57 170/5/53 169/8/61 
f 168/7/41 167/6/53 174/11/53 173/10/63 
f 172/9/62 171/12/53 178/16/66 177/15/62 
f 230/68/108 227/65/106 182/18/70 181/17/69 
f 180/20/68 179/19/67 186/22/74 185/21/73 
f 184/24/72 183/23/71 190/27/78 189/26/77 
f 188/25/76 187/28/75 194/32/79 193/31/81 
f 232/70/52 229/67/33 198/36/84 197/35/52 
f 196/34/83 195/33/82 202/40/88 201/39/87 
f 200/38/86 199/37/85 206/41/33 205/44/91 
f 204/43/90 203/42/89 210/48/94 209/47/93 
f 235/73/111 231/69/95 214/49/95 213/52/96 
f 212/51/2 211/50/95 218/54/95 217/53/2 
f 216/56/2 215/55/97 222/60/101 221/59/100 
f 220/58/99 219/57/98 226/64/105 225/63/104 
f 244/1/1 245/2/2 246/3/3 247/4/1 
f 248/6/1 249/7/2 250/8/4 251/5/1 
f 252/12/1 253/9/5 254/10/6 255/11/1 
f 256/13/7 257/14/8 258/15/5 259/16/9 
f 260/19/12 261/20/13 262/17/10 263/18/11 
f 264/23/16 265/24/17 266/21/14 267/22/15 
f 268/28/21 269/25/18 270/26/19 271/27/20 
f 272/29/22 273/30/23 274/31/24 275/32/22 
f 276/33/25 277/34/26 278/35/27 279/36/28 
f 280/37/29 281/38/30 282/39/31 283/40/32 
f 284/42/34 285/43/35 286/44/36 287/41/33 
f 288/45/33 289/46/37 290/47/38 291/48/39 
f 292/50/40 293/51/41 294/52/41 295/49/40 
f 296/55/42 297/56/41 298/53/41 299/54/40 
f 300/57/43 301/58/44 302/59/45 303/60/46 
f 304/64/50 305/61/47 306/62/48 307/63/49 
f 246/3/3 263/18/11 308/65/51 309/66/2 
f 267/22/15 260/19/12 245/2/2 250/8/4 
f 271/27/20 264/23/16 249/7/2 254/10/6 
f 275/32/22 268/28/21 253/9/5 258/15/5 
f 279/36/28 310/67/33 311/68/52 262/17/10 
f 283/40/32 276/33/25 261/20/13 266/21/14 
f 287/41/33 280/37/29 265/24/17 270/26/19 
f 291/48/39 284/42/34 269/25/18 274/31/24 
f 295/49/40 312/69/40 313/70/27 278/35/27 
f 299/54/40 292/50/40 277/34/26 282/39/31 
f 303/60/46 296/55/42 281/38/30 286/44/36 
f 304/64/50 300/57/43 285/43/35 290/47/38 
f 314/71/53 315/72/53 316/73/41 294/52/41 
f 317/74/53 318/75/53 293/51/41 298/53/41 
f 319/76/53 320/77/53 297/56/41 302/59/45 
f 321/78/54 322/79/55 301/58/44 307/63/49 
f 245/2/2 260/19/12 263/18/11 246/3/3 
f 249/7/2 264/23/16 267/22/15 250/8/4 
f 254/10/6 253/9/5 268/28/21 271/27/20 
f 257/14/8 272/29/22 275/32/22 258/15/5 
f 261/20/13 276/33/25 279/36/28 262/17/10 
f 265/24/17 280/37/29 283/40/32 266/21/14 
f 269/25/18 284/42/34 287/41/33 270/26/19 
f 273/30/23 288/45/33 291/48/39 274/31/24 
f 277/34/26 292/50/40 295/49/40 278/35/27 
f 281/38/30 296/55/42 299/54/40 282/39/31 
f 285/43/35 300/57/43 303/60/46 286/44/36 
f 289/46/37 305/61/47 304/64/50 290/47/38 
f 293/51/41 318/75/53 314/71/53 294/52/41 
f 297/56/41 320/77/53 317/74/53 298/53/41 
f 301/58/44 322/79/55 319/76/53 302/59/45 
f 307/63/49 306/62/48 323/80/56 321/78/54 
f 309/66/2 324/81/1 247/4/1 246/3/3 
f 245/2/2 244/1/1 251/5/1 250/8/4 
f 249/7/2 248/6/1 255/11/1 254/10/6 
f 253/9/5 252/12/1 259/16/9 258/15/5 
f 311/68/52 308/65/51 263/18/11 262/17/10 
f 261/20/13 260/19/12 267/22/15 266/21/14 
f 265/24/17 264/23/16 271/27/20 270/26/19 
f 269/25/18 268/28/21 275/32/22 274/31/24 
f 313/70/27 310/67/33 279/36/28 278/35/27 
f 277/34/26 276/33/25 283/40/32 282/39/31 
f 281/38/30 280/37/29 287/41/33 286/44/36 
f 285/43/35 284/42/34 291/48/39 290/47/38 
f 316/73/41 312/69/40 295/49/40 294/52/41 
f 293/51/41 292/50/40 299/54/40 298/53/41 
f 297/56/41 296/55/42 303/60/46 302/59/45 
f 301/58/44 300/57/43 304/64/50 307/63/49 
# 256 polygons

